<?xml version="1.0" standalone="no"?>
<!DOCTYPE svg PUBLIC "-//W3C//DTD SVG 20010904//EN"
 "http://www.w3.org/TR/2001/REC-SVG-20010904/DTD/svg10.dtd">
<svg version="1.0" xmlns="http://www.w3.org/2000/svg"
 width="260.000000pt" height="260.000000pt" viewBox="0 0 260.000000 260.000000"
 preserveAspectRatio="xMidYMid meet">
<metadata>
Created by potrace 1.11, written by Peter Selinger 2001-2013
</metadata>
<g transform="translate(0.000000,260.000000) scale(0.100000,-0.100000)"
fill="#000000" stroke="none">
<path d="M0 1300 l0 -1300 1300 0 1300 0 0 1300 0 1300 -1300 0 -1300 0 0
-1300z m968 648 c5 -7 66 -141 135 -299 151 -345 167 -377 184 -383 16 -7 43
47 203 399 67 149 126 274 131 280 6 6 80 11 176 11 l165 2 -7 -232 c-5 -127
-7 -364 -5 -526 2 -162 4 -351 4 -420 l1 -125 -176 -3 c-152 -2 -178 0 -183
13 -3 9 -1 144 5 302 6 173 6 290 1 295 -11 11 -59 -101 -178 -407 -42 -110
-81 -206 -87 -212 -5 -7 -23 -13 -39 -13 -62 0 -49 -24 -250 456 -34 84 -67
152 -73 153 -6 1 -10 -103 -10 -292 l0 -292 -166 -3 c-128 -2 -168 0 -171 10
-2 7 0 110 4 228 5 118 7 404 6 635 l-3 420 110 6 c200 10 212 9 223 -3z"/>
</g>
</svg>
